<?xml version="1.0" encoding="UTF-8" standalone="no"?>
<!-- Created with Inkscape (http://www.inkscape.org/) -->

<svg
   xmlns:dc="http://purl.org/dc/elements/1.1/"
   xmlns:cc="http://creativecommons.org/ns#"
   xmlns:rdf="http://www.w3.org/1999/02/22-rdf-syntax-ns#"
   xmlns:svg="http://www.w3.org/2000/svg"
   xmlns="http://www.w3.org/2000/svg"
   xmlns:sodipodi="http://sodipodi.sourceforge.net/DTD/sodipodi-0.dtd"
   xmlns:inkscape="http://www.inkscape.org/namespaces/inkscape"
   width="96"
   height="96"
   viewBox="0 0 96.000001 96.000001"
   id="svg2"
   version="1.1"
   inkscape:version="0.91 r13725"
   sodipodi:docname="My_Card_It_Icon.svg">
  <defs
     id="defs4" />
  <sodipodi:namedview
     id="base"
     pagecolor="#ffffff"
     bordercolor="#666666"
     borderopacity="1.0"
     inkscape:pageopacity="0.0"
     inkscape:pageshadow="2"
     inkscape:zoom="5.6"
     inkscape:cx="61.380257"
     inkscape:cy="28.039154"
     inkscape:document-units="px"
     inkscape:current-layer="layer1"
     showgrid="false"
     units="px"
     inkscape:window-width="1855"
     inkscape:window-height="1056"
     inkscape:window-x="65"
     inkscape:window-y="24"
     inkscape:window-maximized="1" />
  <metadata
     id="metadata7">
    <rdf:RDF>
      <cc:Work
         rdf:about="">
        <dc:format>image/svg+xml</dc:format>
        <dc:type
           rdf:resource="http://purl.org/dc/dcmitype/StillImage" />
        <dc:title />
      </cc:Work>
    </rdf:RDF>
  </metadata>
  <g
     inkscape:label="Layer 1"
     inkscape:groupmode="layer"
     id="layer1"
     transform="translate(0,-956.36216)">
    <rect
       style="fill:#ffffff;fill-rule:evenodd;stroke:#000000;stroke-width:1;stroke-linecap:butt;stroke-linejoin:round;stroke-opacity:1;fill-opacity:1;stroke-miterlimit:4;stroke-dasharray:none"
       id="rect4615"
       width="90.873413"
       height="50.873413"
       x="3.0632939"
       y="984.92548" />
    <path
       inkscape:connector-curvature="0"
       d="m 28.5,990.36208 c -11.04,0 -20,8.96004 -20,20.00012 0,11.04 8.96,20 20,20 11.04,0 20,-8.96 20,-20 0,-11.04008 -8.96,-20.00012 -20,-20.00012 z m 0,6.00004 c 3.32,0 6,2.68 6,6.00008 0,3.32 -2.68,6 -6,6 -3.32,0 -6,-2.68 -6,-6 0,-3.32008 2.68,-6.00008 6,-6.00008 z m 0,28.40008 c -5,0 -9.42,-2.56 -12,-6.44 0.06,-3.98 8,-6.16 12,-6.16 3.98,0 11.94,2.18 12,6.16 -2.58,3.88 -7,6.44 -12,6.44 z"
       fill="#2196F3"
       id="path4548" />
    <path
       style="fill:none;fill-rule:evenodd;stroke:#000000;stroke-width:1.95415998;stroke-linecap:round;stroke-linejoin:round;stroke-miterlimit:4;stroke-dasharray:none;stroke-opacity:1"
       d="m 56.990996,1001.3621 c 29.578195,0 29.663435,0 29.663435,0"
       id="path6026"
       inkscape:connector-curvature="0" />
    <path
       style="fill:none;fill-rule:evenodd;stroke:#000000;stroke-width:1.92579758;stroke-linecap:round;stroke-linejoin:round;stroke-miterlimit:4;stroke-dasharray:none;stroke-opacity:1"
       d="m 56.976613,1009.3621 29.719241,0"
       id="path6028"
       inkscape:connector-curvature="0" />
    <path
       style="fill:none;fill-rule:evenodd;stroke:#000000;stroke-width:1.86109626;stroke-linecap:round;stroke-linejoin:round;stroke-miterlimit:4;stroke-dasharray:none;stroke-opacity:1"
       d="m 56.943801,1017.3621 29.843495,0"
       id="path6030"
       inkscape:connector-curvature="0" />
    <g
       transform="matrix(2.5261182,0,0,2.5261182,17.723882,939.03474)"
       id="g6651">
      <circle
         style="fill:#f44336"
         id="circle6088"
         r="2.1800001"
         cy="20.236002"
         cx="12" />
      <path
         style="fill:#f44336"
         inkscape:connector-curvature="0"
         id="path6090"
         d="m 1,12.331457 2.0011122,2.001113 c 4.9709607,-4.9709612 13.0319778,-4.9709611 18.0029388,0 l 2.001112,-2.001112 C 16.931116,6.2574099 7.0740474,6.25741 1,12.331457 Z m 4.0022242,4.002224 2.0011126,2.001113 c 2.7577161,-2.757717 7.2407732,-2.757716 9.9984892,-10e-7 l 2.001113,-2.001111 c -3.867875,-3.867875 -10.1328406,-3.867875 -14.0007148,-1e-6 z" />
    </g>
  </g>
</svg>
