<?xml version="1.0" encoding="UTF-8" standalone="no"?>
<!-- Created with Inkscape (http://www.inkscape.org/) -->

<svg
   xmlns:dc="http://purl.org/dc/elements/1.1/"
   xmlns:cc="http://creativecommons.org/ns#"
   xmlns:rdf="http://www.w3.org/1999/02/22-rdf-syntax-ns#"
   xmlns:svg="http://www.w3.org/2000/svg"
   xmlns="http://www.w3.org/2000/svg"
   xmlns:sodipodi="http://sodipodi.sourceforge.net/DTD/sodipodi-0.dtd"
   xmlns:inkscape="http://www.inkscape.org/namespaces/inkscape"
   width="96"
   height="96"
   viewBox="0 0 96.000001 96.000001"
   id="svg2"
   version="1.1"
   inkscape:version="0.91 r13725"
   sodipodi:docname="My_Card_It_Icon.svg">
  <defs
     id="defs4" />
  <sodipodi:namedview
     id="base"
     pagecolor="#ffffff"
     bordercolor="#666666"
     borderopacity="1.0"
     inkscape:pageopacity="0.0"
     inkscape:pageshadow="2"
     inkscape:zoom="7.9195959"
     inkscape:cx="27.979918"
     inkscape:cy="45.871737"
     inkscape:document-units="px"
     inkscape:current-layer="layer1"
     showgrid="false"
     units="px"
     inkscape:window-width="1855"
     inkscape:window-height="1056"
     inkscape:window-x="65"
     inkscape:window-y="24"
     inkscape:window-maximized="1" />
  <metadata
     id="metadata7">
    <rdf:RDF>
      <cc:Work
         rdf:about="">
        <dc:format>image/svg+xml</dc:format>
        <dc:type
           rdf:resource="http://purl.org/dc/dcmitype/StillImage" />
        <dc:title />
      </cc:Work>
    </rdf:RDF>
  </metadata>
  <g
     inkscape:label="Layer 1"
     inkscape:groupmode="layer"
     id="layer1"
     transform="translate(0,-956.36216)">
    <rect
       style="fill:#ffffff;fill-opacity:1;fill-rule:evenodd;stroke:#000000;stroke-width:1;stroke-linecap:butt;stroke-linejoin:round;stroke-miterlimit:4;stroke-dasharray:none;stroke-opacity:1"
       id="rect4615"
       width="90.873413"
       height="50.873413"
       x="3.0632939"
       y="988.92572" />
    <path
       inkscape:connector-curvature="0"
       d="m 28.5,994.86204 c -11.04,0 -20,8.96006 -20,20.00016 0,11.04 8.96,20 20,20 11.04,0 20,-8.96 20,-20 0,-11.0401 -8.96,-20.00016 -20,-20.00016 z m 0,6.00006 c 3.32,0 6,2.68 6,6.0001 0,3.32 -2.68,6 -6,6 -3.32,0 -6,-2.68 -6,-6 0,-3.3201 2.68,-6.0001 6,-6.0001 z m 0,28.4001 c -5,0 -9.42,-2.56 -12,-6.44 0.06,-3.98 8,-6.16 12,-6.16 3.98,0 11.94,2.18 12,6.16 -2.58,3.88 -7,6.44 -12,6.44 z"
       id="path4548"
       style="fill:#2196f3" />
    <path
       style="fill:none;fill-rule:evenodd;stroke:#000000;stroke-width:1.95415998;stroke-linecap:round;stroke-linejoin:round;stroke-miterlimit:4;stroke-dasharray:none;stroke-opacity:1"
       d="m 56.990996,1005.3624 c 29.578195,0 29.663435,0 29.663435,0"
       id="path6026"
       inkscape:connector-curvature="0" />
    <path
       style="fill:none;fill-rule:evenodd;stroke:#000000;stroke-width:1.92579758;stroke-linecap:round;stroke-linejoin:round;stroke-miterlimit:4;stroke-dasharray:none;stroke-opacity:1"
       d="m 56.976613,1013.3624 29.719241,0"
       id="path6028"
       inkscape:connector-curvature="0" />
    <path
       style="fill:none;fill-rule:evenodd;stroke:#000000;stroke-width:1.86109626;stroke-linecap:round;stroke-linejoin:round;stroke-miterlimit:4;stroke-dasharray:none;stroke-opacity:1"
       d="m 56.943801,1021.3624 29.843495,0"
       id="path6030"
       inkscape:connector-curvature="0" />
    <g
       id="g3349"
       transform="matrix(1.0081861,0,0,1.0081861,-4.7637219,-7.118732)">
      <g
         id="g6651"
         transform="matrix(2.9800239,0,0,2.9800239,17.019976,933.69185)">
        <circle
           cx="12"
           cy="20.236002"
           r="2.1800001"
           id="circle6088"
           style="fill:#f44336" />
        <path
           d="m 1,12.331457 2.0011122,2.001113 c 4.9709607,-4.9709612 13.0319778,-4.9709611 18.0029388,0 l 2.001112,-2.001112 C 16.931116,6.2574099 7.0740474,6.25741 1,12.331457 Z m 4.0022242,4.002224 2.0011126,2.001113 c 2.7577161,-2.757717 7.2407732,-2.757716 9.9984892,-10e-7 l 2.001113,-2.001111 c -3.867875,-3.867875 -10.1328406,-3.867875 -14.0007148,-1e-6 z"
           id="path6090"
           inkscape:connector-curvature="0"
           style="fill:#f44336" />
      </g>
    </g>
  </g>
</svg>
