<?xml version="1.0" encoding="UTF-8" standalone="no"?>
<!-- Created with Inkscape (http://www.inkscape.org/) -->

<svg
   xmlns:dc="http://purl.org/dc/elements/1.1/"
   xmlns:cc="http://creativecommons.org/ns#"
   xmlns:rdf="http://www.w3.org/1999/02/22-rdf-syntax-ns#"
   xmlns:svg="http://www.w3.org/2000/svg"
   xmlns="http://www.w3.org/2000/svg"
   xmlns:sodipodi="http://sodipodi.sourceforge.net/DTD/sodipodi-0.dtd"
   xmlns:inkscape="http://www.inkscape.org/namespaces/inkscape"
   width="1024"
   height="500"
   viewBox="0 0 1024 500.00001"
   id="svg2"
   version="1.1"
   inkscape:version="0.91 r13725"
   sodipodi:docname="My_Card_It_Feature_Graphic.svg">
  <defs
     id="defs4" />
  <sodipodi:namedview
     id="base"
     pagecolor="#ffffff"
     bordercolor="#666666"
     borderopacity="1.0"
     inkscape:pageopacity="0.0"
     inkscape:pageshadow="2"
     inkscape:zoom="0.91097392"
     inkscape:cx="321.7001"
     inkscape:cy="201.68512"
     inkscape:document-units="px"
     inkscape:current-layer="layer1"
     showgrid="false"
     units="px"
     inkscape:window-width="1855"
     inkscape:window-height="1056"
     inkscape:window-x="65"
     inkscape:window-y="24"
     inkscape:window-maximized="1"
     borderlayer="true" />
  <metadata
     id="metadata7">
    <rdf:RDF>
      <cc:Work
         rdf:about="">
        <dc:format>image/svg+xml</dc:format>
        <dc:type
           rdf:resource="http://purl.org/dc/dcmitype/StillImage" />
        <dc:title />
      </cc:Work>
    </rdf:RDF>
  </metadata>
  <g
     inkscape:label="Layer 1"
     inkscape:groupmode="layer"
     id="layer1"
     transform="translate(0,-552.36216)">
    <rect
       style="fill:#ffffff;fill-opacity:1;fill-rule:evenodd;stroke:#000000;stroke-width:1;stroke-linecap:butt;stroke-linejoin:round;stroke-miterlimit:4;stroke-dasharray:none;stroke-opacity:1"
       id="rect4615"
       width="90.873413"
       height="50.873413"
       x="538.11133"
       y="659.54089" />
    <path
       inkscape:connector-curvature="0"
       d="m 563.54806,665.47723 c -11.04,0 -20,8.96006 -20,20.00016 0,11.04 8.96,20 20,20 11.04,0 20,-8.96 20,-20 0,-11.0401 -8.96,-20.00016 -20,-20.00016 z m 0,6.00006 c 3.32,0 6,2.68 6,6.0001 0,3.32 -2.68,6 -6,6 -3.32,0 -6,-2.68 -6,-6 0,-3.3201 2.68,-6.0001 6,-6.0001 z m 0,28.4001 c -5,0 -9.42,-2.56 -12,-6.44 0.06,-3.98 8,-6.16 12,-6.16 3.98,0 11.94,2.18 12,6.16 -2.58,3.88 -7,6.44 -12,6.44 z"
       id="path4548"
       style="fill:#2196f3" />
    <path
       style="fill:none;fill-rule:evenodd;stroke:#000000;stroke-width:1.95415998;stroke-linecap:round;stroke-linejoin:round;stroke-miterlimit:4;stroke-dasharray:none;stroke-opacity:1"
       d="m 592.03905,675.97759 c 29.5782,0 29.66344,0 29.66344,0"
       id="path6026"
       inkscape:connector-curvature="0" />
    <path
       style="fill:none;fill-rule:evenodd;stroke:#000000;stroke-width:1.92579758;stroke-linecap:round;stroke-linejoin:round;stroke-miterlimit:4;stroke-dasharray:none;stroke-opacity:1"
       d="m 592.02467,683.97759 29.71924,0"
       id="path6028"
       inkscape:connector-curvature="0" />
    <path
       style="fill:none;fill-rule:evenodd;stroke:#000000;stroke-width:1.86109626;stroke-linecap:round;stroke-linejoin:round;stroke-miterlimit:4;stroke-dasharray:none;stroke-opacity:1"
       d="m 591.99186,691.97759 29.84349,0"
       id="path6030"
       inkscape:connector-curvature="0" />
    <g
       id="g3349"
       transform="matrix(1.0081861,0,0,1.0081861,530.28434,-336.50354)">
      <g
         id="g6651"
         transform="matrix(2.9800239,0,0,2.9800239,17.019976,933.69185)">
        <circle
           cx="12"
           cy="20.236002"
           r="2.1800001"
           id="circle6088"
           style="fill:#f44336" />
        <path
           d="m 1,12.331457 2.0011122,2.001113 c 4.9709607,-4.9709612 13.0319778,-4.9709611 18.0029388,0 l 2.001112,-2.001112 C 16.931116,6.2574099 7.0740474,6.25741 1,12.331457 Z m 4.0022242,4.002224 2.0011126,2.001113 c 2.7577161,-2.757717 7.2407732,-2.757716 9.9984892,-10e-7 l 2.001113,-2.001111 c -3.867875,-3.867875 -10.1328406,-3.867875 -14.0007148,-1e-6 z"
           id="path6090"
           inkscape:connector-curvature="0"
           style="fill:#f44336" />
      </g>
    </g>
    <path
       style="fill:none"
       inkscape:connector-curvature="0"
       d="m 80.223287,624.47628 297.939523,0 0,313.46371 -297.939523,0 z"
       id="path4339" />
    <path
       style="fill:#2196f3"
       inkscape:connector-curvature="0"
       d="m 159.09907,879.74616 c 0,7.1148 5.58637,12.936 12.41415,12.936 l 12.41415,0 0,45.276 c 0,10.73688 8.31748,19.404 18.62122,19.404 10.30374,0 18.62122,-8.66712 18.62122,-19.404 l 0,-45.276 24.82829,0 0,45.276 c 0,10.73688 8.31748,19.404 18.62122,19.404 10.30375,0 18.62122,-8.66712 18.62122,-19.404 l 0,-45.276 12.41415,0 c 6.82778,0 12.41415,-5.8212 12.41415,-12.936 l 0,-129.36 -148.96977,0 0,129.36 z m -31.03536,-129.36 c -10.30374,0 -18.62122,8.66712 -18.62122,19.404 l 0,90.552 c 0,10.73688 8.31748,19.404 18.62122,19.404 10.30374,0 18.62122,-8.66712 18.62122,-19.404 l 0,-90.552 c 0,-10.73688 -8.31748,-19.404 -18.62122,-19.404 z m 211.0405,0 c -10.30375,0 -18.62122,8.66712 -18.62122,19.404 l 0,90.552 c 0,10.73688 8.31747,19.404 18.62122,19.404 10.30374,0 18.62122,-8.66712 18.62122,-19.404 l 0,-90.552 c 0,-10.73688 -8.31748,-19.404 -18.62122,-19.404 z m -61.69831,-75.54624 16.13839,-16.8168 c 2.48283,-2.5872 2.48283,-6.59736 0,-9.18456 -2.48283,-2.5872 -6.33122,-2.5872 -8.81405,0 l -18.37293,19.14528 c -9.80718,-5.1744 -20.97991,-8.14968 -32.77335,-8.14968 -11.91758,0 -23.09032,2.97528 -33.02163,8.14968 l -18.49708,-19.14528 c -2.48283,-2.5872 -6.33122,-2.5872 -8.81405,0 -2.48283,2.5872 -2.48283,6.59736 0,9.18456 l 16.26254,16.94616 c -18.37294,14.10024 -30.41467,36.73824 -30.41467,62.48088 l 148.96977,0 c 0,-25.74264 -12.04172,-48.51 -30.66294,-62.61024 z m -68.65024,36.73824 -12.41414,0 0,-12.936 12.41414,0 0,12.936 z m 62.07074,0 -12.41415,0 0,-12.936 12.41415,0 0,12.936 z"
       id="path4341" />
  </g>
</svg>
